<svg width="17" height="17" viewBox="0 0 17 17" fill="none" xmlns="http://www.w3.org/2000/svg">
<path d="M12.4671 9.65378C11.4411 9.65378 10.6094 8.82202 10.6094 7.79601C10.6094 6.76998 11.4411 5.93823 12.4671 5.93823C13.4931 5.93823 14.3249 6.76998 14.3249 7.79601C14.3249 8.82202 13.4931 9.65378 12.4671 9.65378Z" stroke="white" stroke-width="1.5" stroke-linecap="round" stroke-linejoin="round"/>
<path d="M9.76758 12.5214C10.0235 12.2509 10.3196 12.0193 10.6468 11.8355C11.2025 11.5233 11.8292 11.3594 12.4666 11.3594C13.104 11.3594 13.7306 11.5233 14.2863 11.8355C14.5267 11.9705 14.7503 12.1313 14.9535 12.3144" stroke="white" stroke-width="1.5" stroke-linecap="round" stroke-linejoin="round"/>
<path d="M6.45643 9.05763C5.185 9.05763 4.1543 8.02692 4.1543 6.7555C4.1543 5.48407 5.185 4.45337 6.45643 4.45337C7.72786 4.45337 8.75856 5.48407 8.75856 6.7555C8.75856 8.02692 7.72786 9.05763 6.45643 9.05763Z" stroke="white" stroke-width="1.5" stroke-linecap="round" stroke-linejoin="round"/>
<path d="M10.7693 15.632C10.6545 14.2569 10.3118 13.3528 10.124 13.0344C9.72402 12.3545 9.16192 11.7924 8.4917 11.4024C7.82149 11.0124 7.06569 10.8076 6.29696 10.8076C5.52823 10.8076 4.77244 11.0124 4.10222 11.4024C3.56705 11.7138 3.10082 12.1349 2.73102 12.6382L2.49658 12.9891" stroke="white" stroke-width="1.5" stroke-linecap="round" stroke-linejoin="round"/>
<path d="M8.5 16C4.35787 16 1 12.6422 1 8.5C1 4.35787 4.35787 1 8.5 1C12.6422 1 16 4.35787 16 8.5C16 12.6422 12.6422 16 8.5 16Z" stroke="white" stroke-width="1.5" stroke-linecap="round" stroke-linejoin="round"/>
</svg>
