<svg width="146" height="76" viewBox="0 0 146 76" fill="none" xmlns="http://www.w3.org/2000/svg">
<g filter="url(#filter0_d_770_2047)">
<rect x="4" width="138" height="68" rx="10" fill="white"/>
</g>
<path opacity="0.1" fill-rule="evenodd" clip-rule="evenodd" d="M4 50.8382C4 50.8382 9.43985 49.6035 15.6246 52.5696C27.3877 58.2108 28.0588 47.8803 32.4207 42.8992C36.4113 38.342 39.7163 41.1225 44.1596 46.6956C47.4367 50.806 52.2127 57.7057 57.1587 56.595C61.6799 55.5796 64.8851 47.4872 71.1519 45.4291C76.1188 43.798 80.1553 48.2791 85.8746 46.6956C93.6335 44.5474 97.0992 31.9007 102.644 31.9007C109.489 31.9007 114.307 21.2046 120.533 21.2046C126.723 21.2046 127.563 27.4942 134.333 31.9007C139.509 35.2696 142 31.9007 142 31.9007V68.0002H4V50.8382Z" fill="url(#paint0_linear_770_2047)"/>
<path d="M5 45.5C5 45.5 9.43985 44.0133 15.6246 46.9364C27.3877 52.496 28.0588 42.3151 32.4207 37.406C36.4113 32.9148 39.7163 35.6551 44.1596 41.1475C47.4367 45.1984 52.2127 51.9983 57.1587 50.9036C61.6799 49.9029 64.8851 41.9276 71.1519 39.8993C76.1188 38.2918 80.1552 42.7081 85.8746 41.1475C93.6335 39.0304 97.0992 26.5668 102.644 26.5668C109.489 26.5668 114.307 16 120.533 16C126.723 16 127.052 22.224 133.822 26.5668C138.998 29.8868 141 27 141 27" stroke="#1B59F8" stroke-width="1.84723" stroke-linecap="round" stroke-linejoin="round"/>
<defs>
<filter id="filter0_d_770_2047" x="0" y="0" width="146" height="76" filterUnits="userSpaceOnUse" color-interpolation-filters="sRGB">
<feFlood flood-opacity="0" result="BackgroundImageFix"/>
<feColorMatrix in="SourceAlpha" type="matrix" values="0 0 0 0 0 0 0 0 0 0 0 0 0 0 0 0 0 0 127 0" result="hardAlpha"/>
<feOffset dy="4"/>
<feGaussianBlur stdDeviation="2"/>
<feComposite in2="hardAlpha" operator="out"/>
<feColorMatrix type="matrix" values="0 0 0 0 0 0 0 0 0 0 0 0 0 0 0 0 0 0 0.25 0"/>
<feBlend mode="normal" in2="BackgroundImageFix" result="effect1_dropShadow_770_2047"/>
<feBlend mode="normal" in="SourceGraphic" in2="effect1_dropShadow_770_2047" result="shape"/>
</filter>
<linearGradient id="paint0_linear_770_2047" x1="28.9402" y1="44.9489" x2="28.9402" y2="68.0002" gradientUnits="userSpaceOnUse">
<stop stop-color="#0062FF"/>
<stop offset="1" stop-color="white" stop-opacity="0.01"/>
</linearGradient>
</defs>
</svg>
