<svg width="13" height="15" viewBox="0 0 13 15" fill="none" xmlns="http://www.w3.org/2000/svg">
<path d="M12 13C12 13.2652 11.8947 13.5196 11.7072 13.7071C11.5196 13.8946 11.2652 14 11 14H2C1.73478 14 1.48043 13.8946 1.29289 13.7071C1.10536 13.5196 1 13.2652 1 13V2C1 1.73478 1.10536 1.48043 1.29289 1.29289C1.48043 1.10536 1.73478 1 2 1H7.58579C7.851 1 8.10536 1.10536 8.29289 1.29289L11.7072 4.70711C11.8947 4.89464 12 5.149 12 5.41421V13Z" stroke="#FF0000" stroke-linecap="round" stroke-linejoin="round"/>
<path d="M7.05859 6.875H9.55859" stroke="#FF0000" stroke-linecap="round" stroke-linejoin="round"/>
<path d="M7.05859 10.3438H9.55859" stroke="#FF0000" stroke-linecap="round" stroke-linejoin="round"/>
<path d="M3.19141 10.2871L4.0293 11.125L5.42578 9.16992" stroke="#FF0000" stroke-linecap="round" stroke-linejoin="round"/>
<path d="M3.19141 6.75586L4.0293 7.59375L5.42578 5.63867" stroke="#FF0000" stroke-linecap="round" stroke-linejoin="round"/>
</svg>
