<svg width="78" height="78" viewBox="0 0 78 78" fill="none" xmlns="http://www.w3.org/2000/svg">
<path d="M4.44602 62.5V27.5909H12.6733V62.5H4.44602ZM8.58239 22.6364C7.27936 22.6364 6.15814 22.2045 5.21875 21.3409C4.27936 20.4621 3.80966 19.4091 3.80966 18.1818C3.80966 16.9394 4.27936 15.8864 5.21875 15.0227C6.15814 14.1439 7.27936 13.7045 8.58239 13.7045C9.90057 13.7045 11.0218 14.1439 11.946 15.0227C12.8854 15.8864 13.3551 16.9394 13.3551 18.1818C13.3551 19.4091 12.8854 20.4621 11.946 21.3409C11.0218 22.2045 9.90057 22.6364 8.58239 22.6364ZM38.5653 27.5909V33.9545H18.4972V27.5909H38.5653ZM23.4517 19.2273H31.679V52C31.679 53.1061 31.8456 53.9545 32.179 54.5455C32.5275 55.1212 32.982 55.5152 33.5426 55.7273C34.1032 55.9394 34.7244 56.0455 35.4062 56.0455C35.9214 56.0455 36.3911 56.0076 36.8153 55.9318C37.2547 55.8561 37.5881 55.7879 37.8153 55.7273L39.2017 62.1591C38.7623 62.3106 38.1335 62.4773 37.3153 62.6591C36.5123 62.8409 35.5275 62.947 34.3608 62.9773C32.3002 63.0379 30.4441 62.7273 28.7926 62.0455C27.1411 61.3485 25.8305 60.2727 24.8608 58.8182C23.9063 57.3636 23.4366 55.5455 23.4517 53.3636V19.2273ZM60.2983 63.1818C56.8134 63.1818 53.821 62.4167 51.321 60.8864C48.8362 59.3561 46.9195 57.2424 45.571 54.5455C44.2377 51.8333 43.571 48.7121 43.571 45.1818C43.571 41.6364 44.2528 38.5076 45.6165 35.7955C46.9801 33.0682 48.9044 30.947 51.3892 29.4318C53.8892 27.9015 56.8438 27.1364 60.2528 27.1364C63.0862 27.1364 65.5938 27.6591 67.7756 28.7045C69.9725 29.7348 71.7225 31.197 73.0256 33.0909C74.3286 34.9697 75.071 37.1667 75.2528 39.6818H67.3892C67.071 38 66.3134 36.5985 65.1165 35.4773C63.9347 34.3409 62.3513 33.7727 60.3665 33.7727C58.6847 33.7727 57.2074 34.2273 55.9347 35.1364C54.6619 36.0303 53.6695 37.3182 52.9574 39C52.2604 40.6818 51.9119 42.697 51.9119 45.0455C51.9119 47.4242 52.2604 49.4697 52.9574 51.1818C53.6544 52.8788 54.6316 54.1894 55.8892 55.1136C57.1619 56.0227 58.6544 56.4773 60.3665 56.4773C61.5786 56.4773 62.6619 56.25 63.6165 55.7955C64.5862 55.3258 65.3968 54.6515 66.0483 53.7727C66.6998 52.8939 67.1468 51.8258 67.3892 50.5682H75.2528C75.0559 53.0379 74.3286 55.2273 73.071 57.1364C71.8134 59.0303 70.1013 60.5152 67.9347 61.5909C65.768 62.6515 63.2225 63.1818 60.2983 63.1818Z" fill="white"/>
</svg>
