<svg width="22" height="21" viewBox="0 0 22 21" fill="none" xmlns="http://www.w3.org/2000/svg">
<path d="M11.7765 1.48277L14.2284 6.43291C14.2842 6.55856 14.3719 6.66738 14.4829 6.74856C14.5938 6.82972 14.7241 6.88041 14.8607 6.89554L20.2734 7.69743C20.4302 7.71757 20.578 7.78189 20.6995 7.88288C20.821 7.98386 20.9114 8.11734 20.9598 8.26771C21.0084 8.4181 21.013 8.57918 20.9734 8.73214C20.9339 8.88512 20.8515 9.02365 20.736 9.13158L16.8345 13.0022C16.7351 13.0953 16.6603 13.2117 16.6172 13.341C16.5741 13.4703 16.564 13.6083 16.5878 13.7424L17.5285 19.186C17.5558 19.3425 17.5385 19.5034 17.4788 19.6505C17.4191 19.7976 17.3194 19.925 17.1907 20.0183C17.0623 20.1114 16.9101 20.1666 16.7517 20.1777C16.5933 20.1887 16.435 20.155 16.2948 20.0804L11.4218 17.5051C11.297 17.4439 11.1599 17.4121 11.0209 17.4121C10.8819 17.4121 10.7447 17.4439 10.6199 17.5051L5.74688 20.0804C5.60669 20.155 5.4484 20.1887 5.29001 20.1777C5.13162 20.1666 4.97949 20.1114 4.85096 20.0183C4.72241 19.925 4.6226 19.7976 4.56289 19.6505C4.5032 19.5034 4.48597 19.3425 4.51321 19.186L5.45388 13.6808C5.47773 13.5466 5.46764 13.4086 5.42455 13.2793C5.38147 13.15 5.30672 13.0336 5.20715 12.9406L1.25938 9.13158C1.14259 9.0207 1.06045 8.87832 1.02292 8.72172C0.985396 8.5651 0.994088 8.40096 1.04794 8.24919C1.1018 8.09742 1.19851 7.96452 1.32636 7.86658C1.45421 7.76866 1.60771 7.70989 1.76827 7.69743L7.18103 6.89554C7.31766 6.88041 7.44794 6.82972 7.55888 6.74856C7.66982 6.66738 7.75753 6.55856 7.81329 6.43291L10.2652 1.48277C10.332 1.3386 10.4386 1.21654 10.5725 1.131C10.7064 1.04545 10.862 1 11.0209 1C11.1797 1 11.3353 1.04545 11.4692 1.131C11.6031 1.21654 11.7097 1.3386 11.7765 1.48277Z" fill="#FF912B" stroke="#FF912B" stroke-width="1.5" stroke-linecap="round" stroke-linejoin="round"/>
</svg>
