<svg width="60" height="60" viewBox="0 0 60 60" fill="none" xmlns="http://www.w3.org/2000/svg">
<circle cx="30" cy="30" r="30" fill="#C8E8FF"/>
<path d="M33.1512 15.6515C33.1512 17.1159 31.9641 18.303 30.4997 18.303C29.0353 18.303 27.8481 17.1159 27.8481 15.6515C27.8481 14.1871 29.0353 13 30.4997 13C31.9641 13 33.1512 14.1871 33.1512 15.6515Z" stroke="#0094FF" stroke-width="3" stroke-linecap="round" stroke-linejoin="round"/>
<path d="M30.5 18.3029V23.4165" stroke="#0094FF" stroke-width="3" stroke-linecap="round" stroke-linejoin="round"/>
<path d="M34.477 35.8694C34.477 35.8694 33.227 37.1951 30.4997 37.1951C27.7725 37.1951 26.5225 35.8694 26.5225 35.8694" stroke="#0094FF" stroke-width="3" stroke-linecap="round" stroke-linejoin="round"/>
<path d="M26.0491 30.8501C25.7353 30.8501 25.481 30.5957 25.481 30.2819C25.481 29.9681 25.7353 29.7137 26.0491 29.7137" stroke="#0094FF" stroke-width="3" stroke-linecap="round" stroke-linejoin="round"/>
<path d="M26.0498 30.8501C26.3636 30.8501 26.618 30.5957 26.618 30.2819C26.618 29.9681 26.3636 29.7137 26.0498 29.7137" stroke="#0094FF" stroke-width="3" stroke-linecap="round" stroke-linejoin="round"/>
<path d="M34.9505 30.8501C34.6367 30.8501 34.3823 30.5957 34.3823 30.2819C34.3823 29.9681 34.6367 29.7137 34.9505 29.7137" stroke="#0094FF" stroke-width="3" stroke-linecap="round" stroke-linejoin="round"/>
<path d="M34.9502 30.8501C35.264 30.8501 35.5184 30.5957 35.5184 30.2819C35.5184 29.9681 35.264 29.7137 34.9502 29.7137" stroke="#0094FF" stroke-width="3" stroke-linecap="round" stroke-linejoin="round"/>
<path d="M18 37.1477V28.0568C18 25.5464 20.0351 23.5114 22.5455 23.5114H38.4545C40.965 23.5114 43 25.5464 43 28.0568V37.1477C43 39.6582 40.965 41.6932 38.4545 41.6932H22.5455C20.0351 41.6932 18 39.6582 18 37.1477Z" stroke="#0094FF" stroke-width="3" stroke-linecap="round" stroke-linejoin="round"/>
</svg>
