<svg width="18" height="17" viewBox="0 0 18 17" fill="none" xmlns="http://www.w3.org/2000/svg">
<path fill-rule="evenodd" clip-rule="evenodd" d="M8.99984 0.231445C8.23845 0.231445 7.49162 0.440069 6.84046 0.834657L2.6738 3.35966C2.06108 3.73095 1.55444 4.25397 1.20282 4.87819C0.851212 5.50241 0.666492 6.20675 0.666504 6.92318V12.1665C0.666504 13.2716 1.10549 14.3314 1.88689 15.1128C2.66829 15.8942 3.7281 16.3332 4.83317 16.3332H13.1665C14.2716 16.3332 15.3314 15.8942 16.1128 15.1128C16.8942 14.3314 17.3332 13.2716 17.3332 12.1665V6.92235C17.333 6.20608 17.1482 5.50176 16.7966 4.87774C16.445 4.25372 15.9385 3.73087 15.3259 3.35966L11.1592 0.834664C10.5081 0.440076 9.76122 0.231445 8.99984 0.231445ZM7.70422 2.26003C8.09492 2.02328 8.54301 1.89811 8.99984 1.89811C9.45666 1.89811 9.90476 2.02328 10.2954 2.26003L14.4621 4.78503C14.8297 5.00776 15.1336 5.32147 15.3446 5.69589C15.5555 6.07025 15.6664 6.49266 15.6665 6.92235V12.1665C15.6665 12.8296 15.4031 13.4654 14.9343 13.9343C14.4654 14.4031 13.8295 14.6665 13.1665 14.6665H12.3332V12.1665C12.3332 11.2825 11.982 10.4346 11.3569 9.80949C10.7317 9.18437 9.88389 8.83318 8.99984 8.83318C8.11578 8.83318 7.26793 9.18437 6.64281 9.80949C6.01769 10.4346 5.6665 11.2825 5.6665 12.1665V14.6665H4.83317C4.17013 14.6665 3.53424 14.4031 3.0654 13.9343C2.59656 13.4654 2.33317 12.8296 2.33317 12.1665V6.92318C2.33316 6.49332 2.44399 6.07069 2.65496 5.69616C2.86593 5.32163 3.16991 5.00782 3.53755 4.78504L7.70422 2.26003ZM10.1783 10.988C10.4909 11.3006 10.6665 11.7245 10.6665 12.1665V14.6665H7.33317V12.1665C7.33317 11.7245 7.50876 11.3006 7.82132 10.988C8.13388 10.6754 8.55781 10.4999 8.99984 10.4999C9.44186 10.4999 9.86579 10.6754 10.1783 10.988Z" fill="#757575"/>
</svg>
