<svg width="20" height="20" viewBox="0 0 20 20" fill="none" xmlns="http://www.w3.org/2000/svg">
<path fill-rule="evenodd" clip-rule="evenodd" d="M6.6665 1.66634C6.6665 1.2061 6.29341 0.833008 5.83317 0.833008C5.37293 0.833008 4.99984 1.2061 4.99984 1.66634V2.49967H4.1665C3.50346 2.49967 2.86758 2.76307 2.39874 3.23191C1.9299 3.70075 1.6665 4.33663 1.6665 4.99967V15.833C1.6665 16.496 1.9299 17.1319 2.39874 17.6008C2.86758 18.0696 3.50346 18.333 4.1665 18.333H15.8332C16.4962 18.333 17.1321 18.0696 17.6009 17.6008C18.0698 17.1319 18.3332 16.496 18.3332 15.833V4.99967C18.3332 4.33663 18.0698 3.70075 17.6009 3.23191C17.1321 2.76307 16.4962 2.49967 15.8332 2.49967H15.4165C14.9563 2.49967 14.5832 2.87277 14.5832 3.33301C14.5832 3.79325 14.9563 4.16634 15.4165 4.16634H15.8332C16.0542 4.16634 16.2661 4.25414 16.4224 4.41042C16.5787 4.5667 16.6665 4.77866 16.6665 4.99967V7.49967H3.33317V4.99967C3.33317 4.77866 3.42097 4.5667 3.57725 4.41042C3.73353 4.25414 3.94549 4.16634 4.1665 4.16634H4.99984V4.99967C4.99984 5.45991 5.37293 5.83301 5.83317 5.83301C6.29341 5.83301 6.6665 5.45991 6.6665 4.99967V1.66634ZM3.57725 16.4223C3.42097 16.266 3.33317 16.054 3.33317 15.833V9.16634H16.6665V15.833C16.6665 16.054 16.5787 16.266 16.4224 16.4223C16.2661 16.5785 16.0542 16.6663 15.8332 16.6663H4.1665C3.94549 16.6663 3.73353 16.5785 3.57725 16.4223Z" fill="white"/>
<path d="M13.3332 1.66634C13.3332 1.2061 12.9601 0.833008 12.4998 0.833008C12.0396 0.833008 11.6665 1.2061 11.6665 1.66634V2.49967H8.74984C8.2896 2.49967 7.9165 2.87277 7.9165 3.33301C7.9165 3.79325 8.2896 4.16634 8.74984 4.16634H11.6665V4.99967C11.6665 5.45991 12.0396 5.83301 12.4998 5.83301C12.9601 5.83301 13.3332 5.45991 13.3332 4.99967V1.66634Z" fill="white"/>
</svg>
