<svg width="18" height="19" viewBox="0 0 18 19" fill="none" xmlns="http://www.w3.org/2000/svg">
<path fill-rule="evenodd" clip-rule="evenodd" d="M5.6665 1.66634C5.6665 1.2061 5.29341 0.833008 4.83317 0.833008C4.37293 0.833008 3.99984 1.2061 3.99984 1.66634V2.49967H3.1665C2.50346 2.49967 1.86758 2.76307 1.39874 3.23191C0.929896 3.70075 0.666504 4.33663 0.666504 4.99967V15.833C0.666504 16.496 0.929896 17.1319 1.39874 17.6008C1.86758 18.0696 2.50346 18.333 3.1665 18.333H14.8332C15.4962 18.333 16.1321 18.0696 16.6009 17.6008C17.0698 17.1319 17.3332 16.496 17.3332 15.833V4.99967C17.3332 4.33663 17.0698 3.70075 16.6009 3.23191C16.1321 2.76307 15.4962 2.49967 14.8332 2.49967H14.4165C13.9563 2.49967 13.5832 2.87277 13.5832 3.33301C13.5832 3.79325 13.9563 4.16634 14.4165 4.16634H14.8332C15.0542 4.16634 15.2661 4.25414 15.4224 4.41042C15.5787 4.5667 15.6665 4.77866 15.6665 4.99967V7.49967H2.33317V4.99967C2.33317 4.77866 2.42097 4.5667 2.57725 4.41042C2.73353 4.25414 2.94549 4.16634 3.1665 4.16634H3.99984V4.99967C3.99984 5.45991 4.37293 5.83301 4.83317 5.83301C5.29341 5.83301 5.6665 5.45991 5.6665 4.99967V1.66634ZM2.57725 16.4223C2.42097 16.266 2.33317 16.054 2.33317 15.833V9.16634H15.6665V15.833C15.6665 16.054 15.5787 16.266 15.4224 16.4223C15.2661 16.5785 15.0542 16.6663 14.8332 16.6663H3.1665C2.94549 16.6663 2.73353 16.5785 2.57725 16.4223Z" fill="#757575"/>
<path d="M12.3332 1.66634C12.3332 1.2061 11.9601 0.833008 11.4998 0.833008C11.0396 0.833008 10.6665 1.2061 10.6665 1.66634V2.49967H7.74984C7.2896 2.49967 6.9165 2.87277 6.9165 3.33301C6.9165 3.79325 7.2896 4.16634 7.74984 4.16634H10.6665V4.99967C10.6665 5.45991 11.0396 5.83301 11.4998 5.83301C11.9601 5.83301 12.3332 5.45991 12.3332 4.99967V1.66634Z" fill="#757575"/>
</svg>
