<svg width="21" height="21" viewBox="0 0 21 21" fill="none" xmlns="http://www.w3.org/2000/svg">
<path d="M14.1312 6.04595C14.0673 5.8651 13.9687 5.70062 13.8433 5.56057C13.5767 5.26267 13.1892 5.0752 12.7579 5.0752H11.6309C10.913 5.0752 10.3311 5.65714 10.3311 6.37498C10.3311 6.98581 10.7564 7.51422 11.3531 7.64475L13.0691 8.02014C13.7376 8.16637 14.2141 8.75877 14.2141 9.44305C14.2141 10.2473 13.5621 10.8997 12.7579 10.8997H11.7872C11.1532 10.8997 10.6138 10.4945 10.4139 9.92897" stroke="white" stroke-width="2" stroke-linecap="round" stroke-linejoin="round"/>
<path d="M12.2725 5.07528V3.61914" stroke="white" stroke-width="2" stroke-linecap="round" stroke-linejoin="round"/>
<path d="M12.2725 12.3555V10.8994" stroke="white" stroke-width="2" stroke-linecap="round" stroke-linejoin="round"/>
<path d="M12.2723 14.9743C16.1312 14.9743 19.2594 11.846 19.2594 7.98714C19.2594 4.12825 16.1312 1 12.2723 1C8.41341 1 5.28516 4.12825 5.28516 7.98714C5.28516 11.846 8.41341 14.9743 12.2723 14.9743Z" stroke="white" stroke-width="2" stroke-linecap="round" stroke-linejoin="round"/>
<path d="M1.84099 8.75293C1.30461 9.7419 1 10.8749 1 12.079C1 15.9377 4.12802 19.0657 7.9866 19.0657C9.08013 19.0657 10.115 18.8144 11.0366 18.3665" stroke="white" stroke-width="2" stroke-linecap="round" stroke-linejoin="round"/>
</svg>
