<svg width="20" height="20" viewBox="0 0 20 20" fill="none" xmlns="http://www.w3.org/2000/svg">
<path d="M5.8335 1.66699C5.17045 1.66699 4.53457 1.93038 4.06573 2.39923C3.59689 2.86807 3.3335 3.50395 3.3335 4.16699V15.8337C3.3335 16.4967 3.59689 17.1326 4.06573 17.6014C4.53457 18.0703 5.17045 18.3337 5.8335 18.3337H14.1668C14.8299 18.3337 15.4658 18.0703 15.9346 17.6014C16.4034 17.1326 16.6668 16.4967 16.6668 15.8337V15.0003C16.6668 14.5401 16.2937 14.167 15.8335 14.167C15.3733 14.167 15.0002 14.5401 15.0002 15.0003V15.8337C15.0002 16.0547 14.9124 16.2666 14.7561 16.4229C14.5998 16.5792 14.3878 16.667 14.1668 16.667H5.8335C5.61248 16.667 5.40052 16.5792 5.24424 16.4229C5.08796 16.2666 5.00016 16.0547 5.00016 15.8337V4.16699C5.00016 3.94598 5.08796 3.73402 5.24424 3.57774C5.40052 3.42146 5.61248 3.33366 5.8335 3.33366H14.1668C14.3878 3.33366 14.5998 3.42146 14.7561 3.57774C14.9124 3.73402 15.0002 3.94598 15.0002 4.16699V5.00033C15.0002 5.46056 15.3733 5.83366 15.8335 5.83366C16.2937 5.83366 16.6668 5.46056 16.6668 5.00033V4.16699C16.6668 3.50395 16.4034 2.86807 15.9346 2.39923C15.4658 1.93038 14.8299 1.66699 14.1668 1.66699H5.8335Z" fill="#D55F5A"/>
<path d="M13.9228 6.91107C13.5973 6.58563 13.0697 6.58563 12.7442 6.91107C12.4188 7.23651 12.4188 7.76414 12.7442 8.08958L13.8217 9.16699H10.0002C9.53993 9.16699 9.16683 9.54009 9.16683 10.0003C9.16683 10.4606 9.53993 10.8337 10.0002 10.8337H13.8217L12.7442 11.9111C12.4188 12.2365 12.4188 12.7641 12.7442 13.0896C13.0697 13.415 13.5973 13.415 13.9228 13.0896L16.4228 10.5896C16.7482 10.2641 16.7482 9.73651 16.4228 9.41107L13.9228 6.91107Z" fill="#D55F5A"/>
</svg>
