<svg width="20" height="20" viewBox="0 0 20 20" fill="none" xmlns="http://www.w3.org/2000/svg">
<path fill-rule="evenodd" clip-rule="evenodd" d="M10.0002 2.5C8.89509 2.5 7.83529 2.93899 7.05388 3.72039C6.27248 4.50179 5.8335 5.5616 5.8335 6.66667C5.8335 7.77174 6.27248 8.83154 7.05388 9.61294C7.10885 9.66791 7.1652 9.72119 7.22284 9.77273C6.50907 10.0998 5.85197 10.5534 5.28612 11.1193C4.03587 12.3695 3.3335 14.0652 3.3335 15.8333V16.6667C3.3335 17.1269 3.70659 17.5 4.16683 17.5C4.62707 17.5 5.00016 17.1269 5.00016 16.6667V15.8333C5.00016 14.5073 5.52695 13.2355 6.46463 12.2978C7.40231 11.3601 8.67408 10.8333 10.0002 10.8333C11.3262 10.8333 12.598 11.3601 13.5357 12.2978C14.4734 13.2355 15.0002 14.5073 15.0002 15.8333V16.6667C15.0002 17.1269 15.3733 17.5 15.8335 17.5C16.2937 17.5 16.6668 17.1269 16.6668 16.6667V15.8333C16.6668 14.0652 15.9644 12.3695 14.7142 11.1193C14.1484 10.5534 13.4913 10.0998 12.7775 9.77273C12.8351 9.72119 12.8915 9.66791 12.9464 9.61294C13.7278 8.83154 14.1668 7.77174 14.1668 6.66667C14.1668 5.5616 13.7278 4.50179 12.9464 3.72039C12.165 2.93899 11.1052 2.5 10.0002 2.5ZM8.2324 4.8989C8.70124 4.43006 9.33712 4.16667 10.0002 4.16667C10.6632 4.16667 11.2991 4.43006 11.7679 4.8989C12.2368 5.36774 12.5002 6.00363 12.5002 6.66667C12.5002 7.32971 12.2368 7.96559 11.7679 8.43443C11.2991 8.90327 10.6632 9.16667 10.0002 9.16667C9.33712 9.16667 8.70124 8.90327 8.2324 8.43443C7.76355 7.96559 7.50016 7.32971 7.50016 6.66667C7.50016 6.00363 7.76355 5.36774 8.2324 4.8989Z" fill="white"/>
</svg>
