<svg width="18" height="18" viewBox="0 0 18 18" fill="none" xmlns="http://www.w3.org/2000/svg">
<path fill-rule="evenodd" clip-rule="evenodd" d="M11.9998 0.699219C11.6462 0.699219 11.3071 0.839694 11.057 1.08974C10.807 1.33979 10.6665 1.67893 10.6665 2.03255V5.69922H6.99984C6.64622 5.69922 6.30708 5.83969 6.05703 6.08974C5.80698 6.33979 5.6665 6.67893 5.6665 7.03255V11.5325H1.99984C1.64622 11.5325 1.30708 11.673 1.05703 11.9231C0.806979 12.1731 0.666504 12.5123 0.666504 12.8659V16.0325C0.666504 16.3862 0.806979 16.7253 1.05703 16.9754C1.30708 17.2254 1.64622 17.3659 1.99984 17.3659H15.9998C16.3535 17.3659 16.6926 17.2254 16.9426 16.9754C17.1927 16.7253 17.3332 16.3862 17.3332 16.0325V2.03255C17.3332 1.67893 17.1927 1.33979 16.9426 1.08974C16.6926 0.839694 16.3535 0.699219 15.9998 0.699219H11.9998ZM7.33317 7.36588H10.6665V15.6992H7.33317V7.36588ZM15.6665 15.6992H12.3332V2.36589H15.6665V15.6992ZM5.6665 13.1992V15.6992H2.33317V13.1992H5.6665Z" fill="#757575"/>
</svg>
