<svg width="14" height="14" viewBox="0 0 14 14" fill="none" xmlns="http://www.w3.org/2000/svg">
<path fill-rule="evenodd" clip-rule="evenodd" d="M9.68195 10.7458C8.66563 11.5361 7.38854 12.0067 6.00155 12.0067C2.68692 12.0067 -0.00012207 9.31891 -0.00012207 6.00335C-0.00012207 2.68779 2.68692 0 6.00155 0C9.31618 0 12.0032 2.68779 12.0032 6.00335C12.0032 7.39059 11.5328 8.66794 10.7429 9.6845L13.7798 12.7186C14.073 13.0115 14.0733 13.4867 13.7805 13.7799C13.4877 14.0731 13.0127 14.0734 12.7195 13.7805L9.68195 10.7458ZM10.5028 6.00335C10.5028 8.49002 8.48753 10.5059 6.00155 10.5059C3.51558 10.5059 1.5003 8.49002 1.5003 6.00335C1.5003 3.51668 3.51558 1.50084 6.00155 1.50084C8.48753 1.50084 10.5028 3.51668 10.5028 6.00335Z" fill="#868FA0"/>
</svg>
