<svg width="7" height="12" viewBox="0 0 7 12" fill="none" xmlns="http://www.w3.org/2000/svg">
<path d="M0.96045 4.5L3.50012 0.871897L3.90974 0.585167L3.50012 0.871898L6.03979 4.5L0.96045 4.5Z" fill="#171C26" stroke="white"/>
<path d="M3.50012 11.1281L0.96045 7.5L0.96045 7.5L6.03979 7.5L3.50012 11.1281Z" fill="#BCC2CE" stroke="white"/>
<path d="M3.90974 0.585167C3.71069 0.300808 3.28956 0.300807 3.09051 0.585166L0.550834 4.21327C0.318862 4.54466 0.555938 5 0.96045 5H6.03979C6.44431 5 6.68138 4.54466 6.44941 4.21327L3.90974 0.585167Z" fill="#171C26"/>
<path d="M3.90974 11.4148C3.71069 11.6992 3.28956 11.6992 3.09051 11.4148L0.550834 7.78673C0.318862 7.45534 0.555938 7 0.96045 7H6.03979C6.44431 7 6.68138 7.45534 6.44941 7.78673L3.90974 11.4148Z" fill="#BCC2CE"/>
</svg>
