<svg width="8" height="12" viewBox="0 0 8 12" fill="none" xmlns="http://www.w3.org/2000/svg">
<path d="M1.27433 4.5L4.11582 0.818349L6.9573 4.5H1.27433Z" fill="#BCC2CE" stroke="white"/>
<path d="M4.11582 11.1817L1.27433 7.5L6.95731 7.5L4.11582 11.1817Z" fill="#BCC2CE" stroke="white"/>
<path d="M4.25505 0.512856C4.05489 0.253513 3.66357 0.253514 3.46341 0.512856L0.621921 4.19451C0.368234 4.5232 0.602533 5 1.01774 5H6.70071C7.11592 5 7.35022 4.5232 7.09653 4.19451L4.25505 0.512856Z" fill="#BCC2CE"/>
<path d="M4.25505 11.4871C4.05489 11.7465 3.66357 11.7465 3.46341 11.4871L0.621921 7.80549C0.368234 7.4768 0.602533 7 1.01774 7H6.70071C7.11592 7 7.35022 7.4768 7.09653 7.80549L4.25505 11.4871Z" fill="#BCC2CE"/>
</svg>
