<svg width="15" height="15" viewBox="0 0 15 15" fill="none" xmlns="http://www.w3.org/2000/svg">
<path d="M7.19767 14C10.6206 14 13.3953 11.0899 13.3953 7.5C13.3953 3.91015 10.6206 1 7.19767 1C3.77479 1 1 3.91015 1 7.5C1 11.0899 3.77479 14 7.19767 14Z" stroke="black" stroke-width="1.5" stroke-linecap="round" stroke-linejoin="round"/>
<path d="M8.82028 5.72238C8.76447 5.55678 8.67835 5.40618 8.56891 5.27794C8.33611 5.00516 7.99783 4.8335 7.6213 4.8335H6.63726C6.01052 4.8335 5.50244 5.36636 5.50244 6.02367C5.50244 6.58298 5.87378 7.06683 6.39475 7.18636L7.89298 7.53008C8.47662 7.66398 8.89262 8.20642 8.89262 8.83301C8.89262 9.56939 8.32343 10.1668 7.6213 10.1668H6.77376C6.22022 10.1668 5.74931 9.7958 5.57478 9.27794" stroke="black" stroke-width="1.5" stroke-linecap="round" stroke-linejoin="round"/>
<path d="M7.19775 4.83333V3.5" stroke="black" stroke-width="1.5" stroke-linecap="round" stroke-linejoin="round"/>
<path d="M7.19775 11.4998V10.1665" stroke="black" stroke-width="1.5" stroke-linecap="round" stroke-linejoin="round"/>
</svg>
