<svg width="60" height="60" viewBox="0 0 60 60" fill="none" xmlns="http://www.w3.org/2000/svg">
<circle cx="30" cy="30" r="30" fill="#C8E8FF"/>
<path d="M32.8573 18H27.143C26.0911 18 25.2383 18.8528 25.2383 19.9048V20.8571C25.2383 21.9091 26.0911 22.7619 27.143 22.7619H32.8573C33.9093 22.7619 34.7621 21.9091 34.7621 20.8571V19.9048C34.7621 18.8528 33.9093 18 32.8573 18Z" stroke="#0094FF" stroke-width="3" stroke-linecap="round" stroke-linejoin="round"/>
<path d="M35.2381 19.9048H38.0952C38.6004 19.9048 39.085 20.1055 39.4421 20.4627C39.7992 20.8199 40 21.3044 40 21.8095V40.8572C40 41.3623 39.7992 41.8469 39.4421 42.204C39.085 42.5612 38.6004 42.7619 38.0952 42.7619H21.9048C21.3996 42.7619 20.9151 42.5612 20.5579 42.204C20.2007 41.8469 20 41.3623 20 40.8572V21.8095C20 21.3044 20.2007 20.8199 20.5579 20.4627C20.9151 20.1055 21.3996 19.9048 21.9048 19.9048H24.7619" stroke="#0094FF" stroke-width="3" stroke-linecap="round" stroke-linejoin="round"/>
</svg>
